<?xml version="1.0" encoding="UTF-8" standalone="no"?>
<!-- Created with Inkscape (http://www.inkscape.org/) -->

<svg
   xmlns:dc="http://purl.org/dc/elements/1.1/"
   xmlns:cc="http://creativecommons.org/ns#"
   xmlns:rdf="http://www.w3.org/1999/02/22-rdf-syntax-ns#"
   xmlns:svg="http://www.w3.org/2000/svg"
   xmlns="http://www.w3.org/2000/svg"
   xmlns:sodipodi="http://sodipodi.sourceforge.net/DTD/sodipodi-0.dtd"
   xmlns:inkscape="http://www.inkscape.org/namespaces/inkscape"
   width="50.694687mm"
   height="49.971722mm"
   viewBox="0 0 50.694687 49.971722"
   version="1.1"
   id="svg8"
   inkscape:version="0.92.3 (2405546, 2018-03-11)"
   sodipodi:docname="mochi logo 030.svg"
   inkscape:export-filename="C:\DROPBOX\Dropbox\Mochi\Logo\mochi logo 030 _32x32.png"
   inkscape:export-xdpi="16.2652"
   inkscape:export-ydpi="16.2652">
  <defs
     id="defs2" />
  <sodipodi:namedview
     id="base"
     pagecolor="#ffffff"
     bordercolor="#666666"
     borderopacity="1.0"
     inkscape:pageopacity="0.0"
     inkscape:pageshadow="2"
     inkscape:zoom="9.7364508"
     inkscape:cx="94.812752"
     inkscape:cy="94.550372"
     inkscape:document-units="mm"
     inkscape:current-layer="layer1"
     showgrid="false"
     inkscape:window-width="3706"
     inkscape:window-height="2115"
     inkscape:window-x="121"
     inkscape:window-y="-13"
     inkscape:window-maximized="1"
     inkscape:measure-start="240.416,119.324"
     inkscape:measure-end="82.7315,68.5894" />
  <metadata
     id="metadata5">
    <rdf:RDF>
      <cc:Work
         rdf:about="">
        <dc:format>image/svg+xml</dc:format>
        <dc:type
           rdf:resource="http://purl.org/dc/dcmitype/StillImage" />
        <dc:title></dc:title>
      </cc:Work>
    </rdf:RDF>
  </metadata>
  <g
     inkscape:label="Layer 1"
     inkscape:groupmode="layer"
     id="layer1"
     transform="translate(0.25302767,-243.61757)">
    <g
       id="g5383"
       transform="rotate(1.0467741,25.179416,268.61235)">
      <g
         id="g5302">
        <path
           style="fill:#00a0b0;fill-opacity:1;stroke-width:0.95346266"
           d="m 23.617418,293.58929 -0.09125,-7.51646 A 14.999999,14.999999 0 0 1 9.4923737,271.39374 14.999999,14.999999 0 0 1 10.706517,265.22885 l -6.5436317,-3.73709 a 22.499998,22.499998 0 0 0 -2.1690106,10.04148 22.499998,22.499998 0 0 0 21.6235413,22.05605 z m 2.525194,-0.0635 a 22.499998,22.499998 0 0 0 20.843313,-22.82954 22.499998,22.499998 0 0 0 -2.235514,-9.31398 l -6.655808,3.45805 a 14.999999,14.999999 0 0 1 1.392812,5.99543 14.999999,14.999999 0 0 1 -13.43578,15.18753 z m 10.712942,-30.88851 6.670651,-3.46557 A 22.499998,22.499998 0 0 0 24.071393,248.6187 22.499998,22.499998 0 0 0 5.3640486,259.26865 l 6.5217004,3.72511 a 14.999999,14.999999 0 0 1 12.325145,-6.87656 14.999999,14.999999 0 0 1 12.644662,6.52005 z"
           id="path4847-6-7-3-1-4"
           inkscape:connector-curvature="0" />
        <circle
           transform="rotate(178.93423)"
           style="fill:#eb6841;fill-opacity:1;stroke-width:0.42376113"
           id="path4847-6-7-3-1"
           cx="-35.243"
           cy="-279.82315"
           r="10" />
        <circle
           transform="rotate(178.93423)"
           style="fill:#eb6841;fill-opacity:1;stroke-width:0.42376113"
           id="path4847-6-7-3-1-5"
           cx="-4.543005"
           cy="-279.82315"
           r="10" />
        <circle
           transform="rotate(178.93423)"
           style="fill:#eb6841;fill-opacity:1;stroke-width:0.42376113"
           id="path4847-6-7-3-1-50"
           cx="-19.442999"
           cy="-254.02316"
           r="10" />
        <circle
           transform="rotate(178.93423)"
           style="fill:#ffffff;fill-opacity:1;stroke-width:0.07415818"
           id="path4847-6-7-3-1-500-8"
           cx="-31.663992"
           cy="-275.3877"
           r="1.75" />
        <circle
           transform="rotate(178.93423)"
           style="fill:#ffffff;fill-opacity:1;stroke-width:0.07415818"
           id="path4847-6-7-3-1-500-8-0"
           cx="-29.444387"
           cy="-278.98239"
           r="1.75" />
        <circle
           transform="rotate(178.93423)"
           style="fill:#ffffff;fill-opacity:1;stroke-width:0.07415818"
           id="path4847-6-7-3-1-500-8-0-5"
           cx="-10.190573"
           cy="-278.76761"
           r="1.75" />
        <circle
           transform="rotate(178.93423)"
           style="fill:#ffffff;fill-opacity:1;stroke-width:0.07415818"
           id="path4847-6-7-3-1-500-8-0-5-5"
           cx="-8.1154842"
           cy="-275.03751"
           r="1.75" />
        <circle
           transform="rotate(178.93423)"
           style="fill:#ffffff;fill-opacity:1;stroke-width:0.07415818"
           id="path4847-6-7-3-1-500-8-0-5-5-5"
           cx="-21.763372"
           cy="-259.78537"
           r="1.75" />
        <circle
           transform="rotate(178.93423)"
           style="fill:#ffffff;fill-opacity:1;stroke-width:0.07415818"
           id="path4847-6-7-3-1-500-8-0-5-5-5-9"
           cx="-17.366781"
           cy="-259.73862"
           r="1.75" />
      </g>
    </g>
  </g>
</svg>
